<svg xmlns="http://www.w3.org/2000/svg" viewBox="0 0 600 400" width="600" height="400">
  <defs>
    <linearGradient id="bg2" x1="0%" y1="0%" x2="100%" y2="100%">
      <stop offset="0%" style="stop-color:#111827"/>
      <stop offset="100%" style="stop-color:#0f766e"/>
    </linearGradient>
  </defs>
  <rect width="600" height="400" fill="url(#bg2)"/>
  <polygon points="130,250 500,210 470,300 95,335" fill="#0b1220" stroke="#334155" stroke-width="2"/>
  <g fill="#1f2937" stroke="#4b5563" stroke-width="0.6">
    <polygon points="150,248 188,244 184,266 146,270"/>
    <polygon points="194,243 232,239 228,261 190,265"/>
    <polygon points="238,238 276,234 272,256 234,260"/>
    <polygon points="282,233 320,229 316,251 278,255"/>
    <polygon points="326,228 364,224 360,246 322,250"/>
    <polygon points="370,223 408,219 404,241 366,245"/>
    <polygon points="414,218 452,214 448,236 410,240"/>
  </g>
  <path d="M130,250 C150,210 220,190 300,185 C380,180 455,200 500,210" fill="none" stroke="#60a5fa" stroke-width="2" opacity="0.45"/>
  <text x="300" y="360" font-family="system-ui, sans-serif" font-size="16" text-anchor="middle" fill="#cbd5e1" letter-spacing="2">VISTA ANGULAR</text>
</svg>
