<svg xmlns="http://www.w3.org/2000/svg" viewBox="0 0 600 400" width="600" height="400">
  <defs>
    <linearGradient id="bg1" x1="0%" y1="0%" x2="100%" y2="100%">
      <stop offset="0%" style="stop-color:#0f172a"/>
      <stop offset="100%" style="stop-color:#1e3a8a"/>
    </linearGradient>
  </defs>
  <rect width="600" height="400" fill="url(#bg1)"/>
  <rect x="90" y="160" width="420" height="150" rx="14" fill="#111827" stroke="#334155" stroke-width="2"/>
  <g fill="#1f2937" stroke="#4b5563" stroke-width="0.6">
    <rect x="110" y="178" width="42" height="24" rx="4"/>
    <rect x="158" y="178" width="42" height="24" rx="4"/>
    <rect x="206" y="178" width="42" height="24" rx="4"/>
    <rect x="254" y="178" width="42" height="24" rx="4"/>
    <rect x="302" y="178" width="42" height="24" rx="4"/>
    <rect x="350" y="178" width="42" height="24" rx="4"/>
    <rect x="398" y="178" width="42" height="24" rx="4"/>
    <rect x="446" y="178" width="44" height="24" rx="4"/>

    <rect x="120" y="210" width="60" height="24" rx="4"/>
    <rect x="186" y="210" width="42" height="24" rx="4"/>
    <rect x="234" y="210" width="42" height="24" rx="4"/>
    <rect x="282" y="210" width="42" height="24" rx="4"/>
    <rect x="330" y="210" width="42" height="24" rx="4"/>
    <rect x="378" y="210" width="42" height="24" rx="4"/>
    <rect x="426" y="210" width="64" height="24" rx="4"/>

    <rect x="170" y="242" width="260" height="24" rx="4"/>
  </g>
  <circle cx="128" cy="190" r="4" fill="#f97316"/>
  <circle cx="176" cy="190" r="4" fill="#facc15"/>
  <circle cx="224" cy="190" r="4" fill="#22c55e"/>
  <circle cx="272" cy="190" r="4" fill="#38bdf8"/>
  <circle cx="320" cy="190" r="4" fill="#818cf8"/>
  <circle cx="368" cy="190" r="4" fill="#e879f9"/>
  <text x="300" y="360" font-family="system-ui, sans-serif" font-size="16" text-anchor="middle" fill="#cbd5e1" letter-spacing="2">VISTA FRONTAL</text>
</svg>
